HIERARCHY
ROOT Hips
{
	OFFSET 0.000000 83.214638 0.000000
	CHANNELS 6 Xposition Yposition Zposition Xrotation Yrotation Zrotation
	JOINT Pelvis
	{
		OFFSET 0.000000 0.000000 0.000000
		CHANNELS 3 Xrotation Yrotation Zrotation
		JOINT LeftUpLeg
		{
			OFFSET 8.479700 -4.795502 -0.379100
			CHANNELS 3 Xrotation Yrotation Zrotation
			JOINT LeftLeg
			{
				OFFSET 0.024144 -32.555107 0.112900
				CHANNELS 3 Xrotation Yrotation Zrotation
				JOINT LeftFoot
				{
					OFFSET -0.024144 -32.638630 -3.012600
					CHANNELS 3 Xrotation Yrotation Zrotation
					JOINT LeftToeBase
					{
						OFFSET 0.970200 -13.225400 11.864200
						CHANNELS 3 Xrotation Yrotation Zrotation
						End Site
						{
							OFFSET 0.000000 12.319262 0.000000
						}
					}
					JOINT LFootTongue
					{
						OFFSET 1.142400 -1.059800 6.665200
						CHANNELS 3 Xrotation Yrotation Zrotation
						End Site
						{
							OFFSET 0.000000 12.319262 0.000000
						}
					}
				}
				JOINT LeftPantLeg
				{
					OFFSET 0.918482 -16.533964 -2.284700
					CHANNELS 3 Xrotation Yrotation Zrotation
					End Site
					{
						OFFSET 0.350399 24.744368 0.000000
					}
				}
			}
		}
		JOINT RightUpLeg
		{
			OFFSET -8.479700 -4.795502 -0.379100
			CHANNELS 3 Xrotation Yrotation Zrotation
			JOINT RightLeg
			{
				OFFSET -0.023144 -32.555092 0.112900
				CHANNELS 3 Xrotation Yrotation Zrotation
				JOINT RightFoot
				{
					OFFSET 0.023144 -32.638641 -3.012700
					CHANNELS 3 Xrotation Yrotation Zrotation
					JOINT RightToeBase
					{
						OFFSET -0.970200 -13.225400 11.864200
						CHANNELS 3 Xrotation Yrotation Zrotation
						End Site
						{
							OFFSET 0.000000 12.319244 0.000000
						}
					}
					JOINT RFootTongue
					{
						OFFSET -1.142200 -1.059800 6.665200
						CHANNELS 3 Xrotation Yrotation Zrotation
						End Site
						{
							OFFSET 0.000000 12.319243 0.000000
						}
					}
				}
				JOINT RightPantLeg
				{
					OFFSET -0.919482 -16.533978 -2.284800
					CHANNELS 3 Xrotation Yrotation Zrotation
					End Site
					{
						OFFSET -0.350400 24.744419 0.000000
					}
				}
			}
		}
	}
	JOINT Spine
	{
		OFFSET 0.000000 7.722000 1.166200
		CHANNELS 3 Xrotation Yrotation Zrotation
		JOINT Spine1
		{
			OFFSET 0.000000 12.024101 0.248800
			CHANNELS 3 Xrotation Yrotation Zrotation
			JOINT Spine2
			{
				OFFSET 0.000000 11.502998 -0.491200
				CHANNELS 3 Xrotation Yrotation Zrotation
				JOINT Neck
				{
					OFFSET 0.000000 18.430702 -3.123100
					CHANNELS 3 Xrotation Yrotation Zrotation
					JOINT Head
					{
						OFFSET 0.000000 9.051102 1.034000
						CHANNELS 3 Xrotation Yrotation Zrotation
						JOINT HairB
						{
							OFFSET 0.208400 24.786102 24.822300
							CHANNELS 3 Xrotation Yrotation Zrotation
							End Site
							{
								OFFSET 0.000000 32.263779 0.000000
							}
						}
						JOINT HairA
						{
							OFFSET -7.081100 24.428299 23.196600
							CHANNELS 3 Xrotation Yrotation Zrotation
							End Site
							{
								OFFSET 0.000000 32.263779 0.000000
							}
						}
						JOINT Hat
						{
							OFFSET 16.728800 15.048294 -15.439601
							CHANNELS 3 Xrotation Yrotation Zrotation
							End Site
							{
								OFFSET 0.000000 32.263779 0.000000
							}
						}
					}
				}
				JOINT LeftShoulder
				{
					OFFSET 6.197800 13.665199 -4.064700
					CHANNELS 3 Xrotation Yrotation Zrotation
					JOINT LeftArm
					{
						OFFSET 7.778100 -0.187103 -1.709300
						CHANNELS 3 Xrotation Yrotation Zrotation
						JOINT LeftForeArm
						{
							OFFSET 22.049376 0.000000 0.000000
							CHANNELS 3 Xrotation Yrotation Zrotation
							JOINT LeftHand
							{
								OFFSET 23.009392 0.000000 0.000000
								CHANNELS 3 Xrotation Yrotation Zrotation
								JOINT LeftHandThumb1
								{
									OFFSET 3.507191 -2.063065 3.133727
									CHANNELS 3 Xrotation Yrotation Zrotation
									JOINT LeftHandThumb2
									{
										OFFSET 3.101337 -1.790558 1.790558
										CHANNELS 3 Xrotation Yrotation Zrotation
										JOINT LeftHandThumb3
										{
											OFFSET 3.058640 -1.765907 1.765906
											CHANNELS 3 Xrotation Yrotation Zrotation
											End Site
											{
												OFFSET -0.415260 3.926476 -0.049563
											}
										}
									}
								}
								JOINT LeftHandIndex1
								{
									OFFSET 11.334419 -0.901459 3.706815
									CHANNELS 3 Xrotation Yrotation Zrotation
									JOINT LeftHandIndex2
									{
										OFFSET 3.283112 0.000000 0.000000
										CHANNELS 3 Xrotation Yrotation Zrotation
										JOINT LeftHandIndex3
										{
											OFFSET 3.323853 0.000000 0.000000
											CHANNELS 3 Xrotation Yrotation Zrotation
											End Site
											{
												OFFSET -1.135597 3.097809 0.402452
											}
										}
									}
								}
								JOINT LeftHandMiddle1
								{
									OFFSET 11.335861 0.000000 0.000000
									CHANNELS 3 Xrotation Yrotation Zrotation
									JOINT LeftHandMiddle2
									{
										OFFSET 3.410492 0.000000 0.000000
										CHANNELS 3 Xrotation Yrotation Zrotation
										JOINT LeftHandMiddle3
										{
											OFFSET 3.312172 0.000000 0.000000
											CHANNELS 3 Xrotation Yrotation Zrotation
											End Site
											{
												OFFSET -1.150200 3.080154 0.400270
											}
										}
									}
								}
								JOINT LeftHandRing1
								{
									OFFSET 11.514786 -0.013176 -3.003090
									CHANNELS 3 Xrotation Yrotation Zrotation
									JOINT LeftHandRing2
									{
										OFFSET 3.053307 0.000000 0.000000
										CHANNELS 3 Xrotation Yrotation Zrotation
										JOINT LeftHandRing3
										{
											OFFSET 3.295807 0.000000 0.000000
											CHANNELS 3 Xrotation Yrotation Zrotation
											End Site
											{
												OFFSET -1.281006 3.013344 0.375733
											}
										}
									}
								}
								JOINT LeftHandPinky1
								{
									OFFSET 10.518692 -0.960396 -5.730441
									CHANNELS 3 Xrotation Yrotation Zrotation
									JOINT LeftHandPinky2
									{
										OFFSET 2.861649 0.000000 0.000000
										CHANNELS 3 Xrotation Yrotation Zrotation
										JOINT LeftHandPinky3
										{
											OFFSET 2.863380 0.000000 0.000000
											CHANNELS 3 Xrotation Yrotation Zrotation
											End Site
											{
												OFFSET -0.843597 2.711159 0.369971
											}
										}
									}
								}
							}
							JOINT LSleeve
							{
								OFFSET 6.676277 -0.344902 -1.011730
								CHANNELS 3 Xrotation Yrotation Zrotation
								End Site
								{
									OFFSET 0.000000 14.885353 0.000000
								}
							}
						}
					}
				}
				JOINT RightShoulder
				{
					OFFSET -6.197800 13.665199 -4.064700
					CHANNELS 3 Xrotation Yrotation Zrotation
					JOINT RightArm
					{
						OFFSET -7.778100 -0.187103 -1.709300
						CHANNELS 3 Xrotation Yrotation Zrotation
						JOINT RightForeArm
						{
							OFFSET -22.049376 0.000000 0.000000
							CHANNELS 3 Xrotation Yrotation Zrotation
							JOINT RightHand
							{
								OFFSET -23.009392 0.000000 0.000000
								CHANNELS 3 Xrotation Yrotation Zrotation
								JOINT RightHandThumb1
								{
									OFFSET -3.507191 -2.063065 3.133727
									CHANNELS 3 Xrotation Yrotation Zrotation
									JOINT RightHandThumb2
									{
										OFFSET -3.101337 -1.790558 1.790558
										CHANNELS 3 Xrotation Yrotation Zrotation
										JOINT RightHandThumb3
										{
											OFFSET -3.058640 -1.765907 1.765906
											CHANNELS 3 Xrotation Yrotation Zrotation
											End Site
											{
												OFFSET 0.415260 3.926476 -0.049563
											}
										}
									}
								}
								JOINT RightHandIndex1
								{
									OFFSET -11.334419 -0.901459 3.706815
									CHANNELS 3 Xrotation Yrotation Zrotation
									JOINT RightHandIndex2
									{
										OFFSET -3.283112 0.000000 0.000000
										CHANNELS 3 Xrotation Yrotation Zrotation
										JOINT RightHandIndex3
										{
											OFFSET -3.323853 0.000000 0.000000
											CHANNELS 3 Xrotation Yrotation Zrotation
											End Site
											{
												OFFSET 1.135597 3.097809 0.402452
											}
										}
									}
								}
								JOINT RightHandMiddle1
								{
									OFFSET -11.335861 0.000000 0.000000
									CHANNELS 3 Xrotation Yrotation Zrotation
									JOINT RightHandMiddle2
									{
										OFFSET -3.410492 0.000000 0.000000
										CHANNELS 3 Xrotation Yrotation Zrotation
										JOINT RightHandMiddle3
										{
											OFFSET -3.312172 0.000000 0.000000
											CHANNELS 3 Xrotation Yrotation Zrotation
											End Site
											{
												OFFSET 1.150200 3.080154 0.400270
											}
										}
									}
								}
								JOINT RightHandRing1
								{
									OFFSET -11.514786 -0.013176 -3.003090
									CHANNELS 3 Xrotation Yrotation Zrotation
									JOINT RightHandRing2
									{
										OFFSET -3.053307 0.000000 0.000000
										CHANNELS 3 Xrotation Yrotation Zrotation
										JOINT RightHandRing3
										{
											OFFSET -3.295807 0.000000 0.000000
											CHANNELS 3 Xrotation Yrotation Zrotation
											End Site
											{
												OFFSET 1.281006 3.013344 0.375733
											}
										}
									}
								}
								JOINT RightHandPinky1
								{
									OFFSET -10.518692 -0.960396 -5.730441
									CHANNELS 3 Xrotation Yrotation Zrotation
									JOINT RightHandPinky2
									{
										OFFSET -2.861649 0.000000 0.000000
										CHANNELS 3 Xrotation Yrotation Zrotation
										JOINT RightHandPinky3
										{
											OFFSET -2.863380 0.000000 0.000000
											CHANNELS 3 Xrotation Yrotation Zrotation
											End Site
											{
												OFFSET 0.843597 2.711159 0.369971
											}
										}
									}
								}
							}
							JOINT RSleeve
							{
								OFFSET -6.676277 -0.344902 -1.011730
								CHANNELS 3 Xrotation Yrotation Zrotation
								End Site
								{
									OFFSET 0.000000 14.885353 0.000000
								}
							}
						}
					}
				}
				JOINT Backpack
				{
					OFFSET 0.000000 -2.471497 36.677502
					CHANNELS 3 Xrotation Yrotation Zrotation
					End Site
					{
						OFFSET 0.000000 20.427315 0.000000
					}
				}
				JOINT Hood
				{
					OFFSET 0.000000 18.754097 -10.431000
					CHANNELS 3 Xrotation Yrotation Zrotation
					JOINT Hood1
					{
						OFFSET 0.000000 -5.011002 -7.685901
						CHANNELS 3 Xrotation Yrotation Zrotation
						End Site
						{
							OFFSET 0.000000 9.175140 0.000000
						}
					}
				}
				JOINT LHoodieString
				{
					OFFSET 5.250500 16.397697 3.089900
					CHANNELS 3 Xrotation Yrotation Zrotation
					JOINT LHoodieString1
					{
						OFFSET 0.257700 -6.364304 3.694600
						CHANNELS 3 Xrotation Yrotation Zrotation
						JOINT LHoodieString2
						{
							OFFSET 0.000000 -9.643799 2.679100
							CHANNELS 3 Xrotation Yrotation Zrotation
							End Site
							{
								OFFSET 0.000000 10.009018 0.000000
							}
						}
					}
				}
				JOINT RHoodieString
				{
					OFFSET -5.250500 16.397697 3.089900
					CHANNELS 3 Xrotation Yrotation Zrotation
					JOINT RHoodieString1
					{
						OFFSET -0.257700 -6.364304 3.694600
						CHANNELS 3 Xrotation Yrotation Zrotation
						JOINT RHoodieString2
						{
							OFFSET 0.000000 -9.643799 2.679100
							CHANNELS 3 Xrotation Yrotation Zrotation
							End Site
							{
								OFFSET 0.000000 10.009018 0.000000
							}
						}
					}
				}
			}
			JOINT LBackpack_Strap
			{
				OFFSET 15.223200 -7.719803 -6.610900
				CHANNELS 3 Xrotation Yrotation Zrotation
				End Site
				{
					OFFSET 0.000000 16.040596 0.000000
				}
			}
			JOINT RBackpack_Strap
			{
				OFFSET -15.223000 -7.719803 -6.610900
				CHANNELS 3 Xrotation Yrotation Zrotation
				End Site
				{
					OFFSET 0.000000 16.040596 0.000000
				}
			}
		}
	}
	JOINT BoyFacialAnim_Joint
	{
		OFFSET 1.000000 -82.208099 -1.550900
		CHANNELS 3 Xrotation Yrotation Zrotation
		End Site
		{
			OFFSET 0.000000 30.012791 0.000000
		}
	}
}
MOTION
Frames: 4
Frame Time: 0.033333
0.054840 86.782013 -3.609940 -84.510477 -3.978135 -2.341156 0.000000 -0.000000 0.000000 -15.286114 15.414589 20.243125 10.936338 3.798983 0.013404 26.100391 29.451875 -25.476271 -0.000000 0.000002 -0.000001 -0.000000 0.000002 -0.000001 0.000000 0.000001 -0.000001 -10.912406 -12.390117 -11.684719 4.962783 -0.937677 -0.014800 33.246161 -29.471764 27.828552 0.000003 0.000002 -0.000002 0.000003 0.000002 -0.000002 0.000000 -0.000002 -0.000001 3.579300 -0.477971 -1.039941 7.078876 -0.224330 0.868102 7.083251 -0.257634 0.843420 7.751509 -1.133964 -0.007961 23.622489 -5.146569 -2.403857 -0.000001 -0.000000 0.000000 -0.000001 -0.000000 0.000000 -0.000001 -0.000000 0.000000 0.654013 -3.337338 -13.732967 32.080644 -27.015823 -39.747832 0.001213 -86.654487 0.001230 -16.124301 -10.133543 -2.572662 -2.729524 6.947517 8.904434 6.377054 15.562180 1.627041 0.000002 0.000002 -0.000001 2.313272 6.195379 -29.868243 0.275700 1.777707 -17.629837 -0.000003 0.000002 -0.000002 3.518567 10.052002 -28.958957 0.286602 1.811634 -17.977946 0.000005 -0.000002 -0.000000 2.517981 9.015892 -24.227968 0.275348 1.776583 -17.618434 -0.000001 0.000001 0.000002 1.411256 8.457509 -16.022490 0.275699 1.777712 -17.629830 0.000004 -0.000001 -0.000000 -0.000000 -0.000001 0.000001 0.299924 6.667611 15.029526 32.512465 31.362641 26.036988 0.000319 98.180718 -0.000330 -34.191333 17.712931 23.463187 -4.641063 5.737695 -12.067285 6.358368 -14.447607 -2.112225 -0.000000 0.000000 -0.000001 -1.747559 0.781603 24.100459 0.607737 -2.302217 29.571779 0.000000 0.000002 0.000002 0.454841 -4.185391 24.092306 0.623773 -2.330226 29.968561 -0.000000 0.000000 0.000002 0.319952 -3.850104 19.646853 0.623772 -2.330220 29.968551 -0.000000 -0.000001 0.000004 0.310568 -3.823655 19.301800 0.443432 -1.985141 25.181340 0.000002 -0.000002 -0.000000 -0.000002 0.000003 0.000001 -0.000000 0.000000 0.000000 -0.000000 0.000000 0.000000 -0.000000 0.000000 0.000000 -0.000000 0.000000 0.000000 -0.000000 0.000000 0.000000 -0.000000 0.000000 -0.000000 -0.000000 0.000000 0.000000 -0.000000 0.000000 0.000000 -0.000000 0.000000 -0.000000 0.000000 0.000000 0.000000 0.000000 0.000000 0.000000 0.000000 -0.000000 0.000000 
0.056412 86.786469 -3.610611 -84.485349 -3.959681 -2.356782 0.000000 0.000000 -0.000000 -15.246625 15.358698 20.229863 10.845268 3.873374 0.013147 26.017012 29.443614 -25.441205 0.000000 0.000003 -0.000002 0.000000 0.000003 -0.000001 0.000000 -0.000001 -0.000000 -10.899822 -12.387467 -11.662538 4.902651 -0.947456 -0.014886 33.176076 -29.471320 27.872173 0.000003 -0.000001 -0.000000 0.000003 -0.000001 -0.000000 -0.000001 -0.000001 0.000001 3.660459 -0.439529 -1.057161 7.066550 -0.131352 0.868101 7.071402 -0.174028 0.817182 7.657714 -1.138465 0.021876 23.265644 -5.215375 -2.275538 -0.000003 0.000000 0.000000 -0.000003 0.000000 0.000000 -0.000003 0.000000 0.000000 0.675092 -3.321915 -13.654931 31.977658 -27.168384 -39.773411 0.001110 -86.597482 0.001184 -16.037889 -10.105863 -2.694359 -2.729518 6.947514 8.904434 6.377052 15.562185 1.627039 0.000000 0.000001 0.000001 2.313272 6.195382 -29.868243 0.275703 1.777707 -17.629835 -0.000001 0.000001 0.000000 3.518571 10.052003 -28.958957 0.286600 1.811634 -17.977949 0.000004 -0.000000 0.000000 2.517985 9.015894 -24.227974 0.275349 1.776581 -17.618429 -0.000003 -0.000002 -0.000001 1.411258 8.457515 -16.022493 0.275694 1.777715 -17.629833 -0.000003 0.000001 0.000002 0.000001 0.000001 -0.000001 0.328128 6.576585 15.097759 32.430349 31.234687 26.189179 0.000858 98.230968 -0.000841 -34.105269 17.663774 23.507672 -4.641059 5.737696 -12.067285 6.358368 -14.447607 -2.112216 -0.000002 0.000001 -0.000004 -1.747561 0.781604 24.100459 0.607739 -2.302215 29.571775 -0.000003 0.000002 -0.000001 0.454838 -4.185392 24.092311 0.623772 -2.330225 29.968558 0.000000 0.000001 0.000003 0.319950 -3.850105 19.646856 0.623774 -2.330222 29.968558 0.000001 0.000001 -0.000001 0.310568 -3.823654 19.301797 0.443433 -1.985139 25.181338 -0.000001 -0.000000 0.000000 -0.000001 -0.000003 -0.000002 0.000002 0.000001 -0.000000 0.000002 0.000001 -0.000000 0.000002 0.000001 -0.000000 0.000002 0.000001 -0.000000 0.000002 0.000001 -0.000000 0.000002 0.000001 -0.000000 0.000002 0.000001 -0.000000 0.000002 0.000001 -0.000000 0.000002 0.000001 -0.000000 0.000002 0.000001 0.000000 0.000002 0.000001 0.000000 0.000000 0.000000 -0.000000 
0.054809 86.797401 -3.615997 -84.422374 -3.939248 -2.364308 0.000000 0.000000 0.000000 -15.107974 15.336556 20.172542 10.491150 3.971239 0.012440 26.017746 29.425432 -25.374412 -0.000001 -0.000000 -0.000000 -0.000001 -0.000000 -0.000000 0.000000 -0.000001 -0.000000 -10.869682 -12.353847 -11.633376 4.782348 -0.995882 -0.015448 33.104762 -29.462062 27.920248 0.000001 -0.000001 0.000001 0.000001 -0.000001 0.000001 -0.000000 -0.000002 -0.000002 3.767739 -0.401505 -1.076995 7.065332 -0.051368 0.859790 7.070604 -0.097572 0.793188 7.515617 -1.153878 0.078026 23.063491 -5.227045 -2.181801 0.000001 0.000000 -0.000000 0.000001 0.000000 -0.000000 0.000001 0.000000 -0.000000 0.751480 -3.101361 -13.648601 31.885492 -27.465898 -39.583730 -0.000500 -86.521476 -0.000532 -15.986553 -10.080917 -2.824512 -2.729521 6.947516 8.904432 6.377056 15.562176 1.627037 0.000003 -0.000001 -0.000003 2.313274 6.195378 -29.868246 0.275699 1.777707 -17.629838 0.000001 0.000000 -0.000002 3.518573 10.052004 -28.958964 0.286599 1.811634 -17.977953 0.000006 -0.000001 -0.000002 2.517982 9.015894 -24.227974 0.275343 1.776583 -17.618427 0.000001 0.000001 -0.000000 1.411258 8.457512 -16.022497 0.275700 1.777717 -17.629837 0.000002 -0.000000 0.000001 -0.000001 -0.000001 0.000000 0.418582 6.269892 15.268748 32.342698 31.245278 26.129187 -0.000198 98.237375 0.000203 -34.068171 17.561593 23.642024 -4.641064 5.737697 -12.067283 6.358370 -14.447607 -2.112223 0.000000 0.000001 0.000002 -1.747558 0.781603 24.100463 0.607735 -2.302217 29.571775 -0.000001 -0.000003 0.000005 0.454839 -4.185393 24.092307 0.623773 -2.330225 29.968558 0.000001 0.000001 -0.000004 0.319953 -3.850106 19.646856 0.623772 -2.330222 29.968558 -0.000002 0.000001 0.000000 0.310568 -3.823655 19.301795 0.443437 -1.985140 25.181340 0.000002 -0.000001 -0.000002 -0.000001 0.000001 -0.000005 0.000002 0.000000 -0.000000 0.000002 0.000000 -0.000000 0.000002 0.000000 -0.000000 0.000002 0.000000 -0.000000 0.000002 0.000000 -0.000000 0.000002 0.000000 -0.000000 0.000002 0.000000 -0.000000 0.000002 0.000000 -0.000000 0.000002 0.000000 -0.000000 -0.000002 0.000000 0.000000 -0.000002 0.000000 0.000000 0.000000 0.000000 0.000000 
0.051364 86.810966 -3.625069 -84.332776 -3.919770 -2.366329 -0.000000 0.000000 -0.000000 -14.911425 15.352807 20.089483 9.961501 4.069524 0.011490 26.069608 29.398661 -25.281595 -0.000000 -0.000001 -0.000000 -0.000000 -0.000001 0.000000 0.000000 -0.000000 -0.000001 -10.837646 -12.304331 -11.599015 4.614894 -1.059564 -0.016224 33.040166 -29.452049 27.971050 0.000003 0.000000 0.000001 0.000003 0.000000 0.000001 -0.000000 0.000002 0.000001 3.890966 -0.380635 -1.096922 7.142498 -0.005922 0.854812 7.147895 -0.054141 0.779561 7.370760 -1.147145 0.117316 22.878579 -5.162740 -2.132225 -0.000001 -0.000000 0.000000 -0.000001 -0.000000 0.000000 -0.000001 -0.000000 0.000000 0.871660 -2.637997 -13.720950 31.799373 -27.943142 -39.116046 0.001469 -86.431331 0.001517 -15.984410 -10.115754 -2.885520 -2.729517 6.947513 8.904437 6.377054 15.562186 1.627038 0.000000 -0.000003 0.000004 2.313273 6.195379 -29.868236 0.275701 1.777707 -17.629837 -0.000001 0.000000 -0.000002 3.518572 10.051997 -28.958954 0.286600 1.811635 -17.977948 0.000004 -0.000001 0.000000 2.517987 9.015892 -24.227970 0.275348 1.776582 -17.618430 0.000003 -0.000001 -0.000000 1.411261 8.457512 -16.022495 0.275697 1.777709 -17.629833 -0.000003 0.000002 0.000002 -0.000001 0.000000 0.000000 0.556241 5.796688 15.524074 32.324792 31.458690 25.627944 0.000545 98.216174 -0.000526 -34.129735 17.507542 23.730275 -4.641064 5.737696 -12.067283 6.358370 -14.447607 -2.112229 0.000003 0.000001 -0.000005 -1.747560 0.781603 24.100457 0.607736 -2.302215 29.571775 0.000000 -0.000002 0.000005 0.454837 -4.185394 24.092309 0.623775 -2.330228 29.968558 0.000000 0.000001 -0.000002 0.319951 -3.850107 19.646858 0.623771 -2.330222 29.968558 0.000002 0.000000 0.000002 0.310570 -3.823656 19.301802 0.443436 -1.985140 25.181338 -0.000001 -0.000000 0.000000 -0.000002 -0.000001 -0.000000 -0.000000 0.000001 -0.000000 -0.000000 0.000001 -0.000000 -0.000000 0.000001 -0.000000 -0.000000 0.000001 -0.000000 -0.000000 0.000001 -0.000000 -0.000000 0.000000 0.000000 -0.000000 0.000001 -0.000000 -0.000000 0.000001 -0.000000 -0.000000 0.000000 0.000000 0.000001 0.000000 -0.000000 0.000001 0.000000 -0.000000 -0.000000 0.000000 -0.000000 
